<svg xmlns="http://www.w3.org/2000/svg" viewBox="0 0 480 228" width="480" height="228" role="img" aria-label="Most Used Languages">
  <defs>
    <linearGradient id="edge" x1="0%" y1="0%" x2="100%" y2="100%">
      <stop offset="0%" stop-color="#64ffda"/><stop offset="100%" stop-color="#38bdf8"/>
    </linearGradient>
  </defs>
  <rect x="0.5" y="0.5" width="479" height="227" rx="12" fill="#0d1117" stroke="#1f6feb33"/>
  <rect x="0.5" y="0.5" width="479" height="3" rx="1.5" fill="url(#edge)"/>
  <g font-family="Segoe UI, Helvetica Neue, Helvetica, Arial, sans-serif">
    <text x="26" y="46" font-size="17" font-weight="700" fill="#64ffda">Most Used Languages</text>
    <g><clipPath id="barclip"><rect x="26" y="72" width="428" height="14" rx="7"/></clipPath>
    <g clip-path="url(#barclip)"><rect x="26" y="72" width="428" height="14" fill="#161b22"/>
    <rect x="26.0" y="72" width="216.6" height="14" fill="#b07219"/>
    <rect x="242.6" y="72" width="100.0" height="14" fill="#3178c6"/>
    <rect x="342.6" y="72" width="59.7" height="14" fill="#00ADD8"/>
    <rect x="402.3" y="72" width="32.1" height="14" fill="#89e051"/>
    <rect x="434.4" y="72" width="11.0" height="14" fill="#3572A5"/>
    <rect x="445.4" y="72" width="8.6" height="14" fill="#f1e05a"/></g></g>
    <circle cx="32" cy="117" r="6" fill="#b07219"/>
    <text x="46" y="122" font-size="13" fill="#c9d1d9">Java</text>
    <text x="222" y="122" font-size="13" font-weight="600" fill="#8b949e" text-anchor="end">50.6%</text>
    <circle cx="252" cy="117" r="6" fill="#3178c6"/>
    <text x="266" y="122" font-size="13" fill="#c9d1d9">TypeScript</text>
    <text x="442" y="122" font-size="13" font-weight="600" fill="#8b949e" text-anchor="end">23.4%</text>
    <circle cx="32" cy="147" r="6" fill="#00ADD8"/>
    <text x="46" y="152" font-size="13" fill="#c9d1d9">Go</text>
    <text x="222" y="152" font-size="13" font-weight="600" fill="#8b949e" text-anchor="end">13.9%</text>
    <circle cx="252" cy="147" r="6" fill="#89e051"/>
    <text x="266" y="152" font-size="13" fill="#c9d1d9">Shell</text>
    <text x="442" y="152" font-size="13" font-weight="600" fill="#8b949e" text-anchor="end">7.5%</text>
    <circle cx="32" cy="177" r="6" fill="#3572A5"/>
    <text x="46" y="182" font-size="13" fill="#c9d1d9">Python</text>
    <text x="222" y="182" font-size="13" font-weight="600" fill="#8b949e" text-anchor="end">2.6%</text>
    <circle cx="252" cy="177" r="6" fill="#f1e05a"/>
    <text x="266" y="182" font-size="13" fill="#c9d1d9">JavaScript</text>
    <text x="442" y="182" font-size="13" font-weight="600" fill="#8b949e" text-anchor="end">2.0%</text>
  </g>
</svg>